<?xml version="1.0" standalone="no"?><!DOCTYPE svg PUBLIC "-//W3C//DTD SVG 1.1//EN" "http://www.w3.org/Graphics/SVG/1.1/DTD/svg11.dtd"><svg height="1024" node-id="1" sillyvg="true" template-height="1024" template-width="1024" version="1.1" viewBox="0 0 1024 1024" width="1024" xmlns="http://www.w3.org/2000/svg" xmlns:xlink="http://www.w3.org/1999/xlink"><defs node-id="33"><linearGradient gradientUnits="objectBoundingBox" id="paint0_linear_1_462" node-id="14" spreadMethod="pad" x1="556.373" x2="559.787" y1="935.253" y2="709.973"><stop offset="0" stop-color="#dcdee2"></stop><stop offset="1" stop-color="#eaedf0"></stop></linearGradient><linearGradient gradientUnits="objectBoundingBox" id="paint1_linear_1_462" node-id="17" spreadMethod="pad" x1="626.35" x2="654.712" y1="969.086" y2="706.047"><stop offset="0" stop-color="#dcdee2" stop-opacity="0"></stop><stop offset="1" stop-color="#b3bac2" stop-opacity="0.9"></stop></linearGradient><linearGradient gradientUnits="objectBoundingBox" id="paint2_linear_1_462" node-id="20" spreadMethod="pad" x1="266.24" x2="266.24" y1="157.013" y2="320.853"><stop offset="0" stop-color="#1671ee"></stop><stop offset="1" stop-color="#e7e9ed"></stop></linearGradient><linearGradient gradientUnits="objectBoundingBox" id="paint3_linear_1_462" node-id="23" spreadMethod="pad" x1="509.242" x2="509.242" y1="359.937" y2="710.106"><stop offset="0" stop-color="#1671ee"></stop><stop offset="1" stop-color="#b0b7bf"></stop></linearGradient><linearGradient gradientUnits="objectBoundingBox" id="paint4_linear_1_462" node-id="26" spreadMethod="pad" x1="212.807" x2="212.807" y1="368.005" y2="703.652"><stop offset="0" stop-color="#1671ee"></stop><stop offset="1" stop-color="#b0b7bf"></stop></linearGradient><linearGradient gradientUnits="objectBoundingBox" id="paint5_linear_1_462" node-id="29" spreadMethod="pad" x1="806.445" x2="806.445" y1="368.005" y2="703.652"><stop offset="0" stop-color="#1671ee"></stop><stop offset="1" stop-color="#b0b7bf"></stop></linearGradient><mask height="848" id="mask0_1_462" maskUnits="userSpaceOnUse" node-id="2" width="848" x="88" y="88"><path d="M 935.25 512.00 C 935.25 745.76 745.76 935.25 512.00 935.25 C 278.24 935.25 88.75 745.76 88.75 512.00 C 88.75 278.24 278.24 88.75 512.00 88.75 C 745.76 88.75 935.25 278.24 935.25 512.00 Z" fill="#f5f6f7" fill-rule="nonzero" node-id="72" stroke="none" target-height="846.5062" target-width="846.50635" target-x="88.7466" target-y="88.746704"></path></mask></defs><g node-id="95"><path d="M 935.25 512.00 C 935.25 745.76 745.76 935.25 512.00 935.25 C 278.24 935.25 88.75 745.76 88.75 512.00 C 88.75 278.24 278.24 88.75 512.00 88.75 C 745.76 88.75 935.25 278.24 935.25 512.00 Z" fill="#f5f6f7" fill-rule="nonzero" group-id="1" node-id="78" stroke="none" target-height="846.5062" target-width="846.50635" target-x="88.7466" target-y="88.746704"></path><path d="M 68.27 689.49 L 955.73 689.49 L 955.73 935.25 L 68.27 935.25 L 68.27 689.49 Z" fill="url(#paint0_linear_1_462)" fill-rule="nonzero" group-id="1" node-id="80" stroke="none" target-height="245.75995" target-width="887.4664" target-x="68.2666" target-y="689.493"></path><path d="M 505.40 695.52 C 554.36 695.52 605.32 723.75 647.17 774.18 C 673.62 805.95 703.85 861.42 723.51 914.36 C 738.86 955.71 748.27 994.54 751.54 1030.34 C 753.24 1050.51 750.72 1069.67 744.18 1086.32 C 731.90 1116.57 705.31 1133.21 667.92 1133.21 C 619.35 1133.21 568.77 1104.97 526.16 1053.54 C 499.72 1021.77 469.67 966.81 450.01 913.86 C 434.85 873.01 425.44 834.19 422.17 798.38 C 420.46 778.21 422.99 759.05 429.53 742.41 C 441.62 711.65 467.63 695.52 505.40 695.52 Z M 634.68 1042.95 C 672.07 1042.95 680.63 1000.59 648.62 914.36 C 615.29 824.61 577.82 788.80 540.04 788.80 C 501.88 788.80 492.68 826.62 526.20 916.88 C 556.72 999.08 598.45 1042.95 634.68 1042.95 Z M 103.84 791.32 L 263.04 791.32 C 259.49 781.74 254.94 769.46 250.37 757.13 L 250.37 757.13 C 241.18 732.32 231.91 707.29 230.47 703.58 L 303.71 703.58 L 336.10 790.82 L 385.44 790.82 L 416.89 875.53 L 367.55 875.53 L 459.48 1123.13 L 383.54 1123.13 L 136.61 879.57 L 103.84 791.32 Z M 294.32 874.53 L 216.46 874.53 C 222.93 880.98 229.40 887.42 235.88 893.86 L 235.89 893.87 C 272.73 930.51 309.58 967.16 345.32 1005.63 C 327.05 961.90 310.58 918.32 294.32 874.53 Z M 856.68 791.32 L 697.48 791.32 L 730.24 879.57 L 977.18 1123.13 L 1053.12 1123.13 L 961.19 875.53 L 1010.53 875.53 L 979.08 790.82 L 929.74 790.82 L 897.35 703.58 L 824.10 703.58 C 825.55 707.29 834.82 732.32 844.01 757.13 C 848.58 769.46 853.12 781.74 856.68 791.32 Z M 810.09 874.53 L 887.96 874.53 C 904.22 918.32 920.69 961.90 938.95 1005.63 C 903.22 967.16 866.37 930.51 829.53 893.87 C 823.05 887.43 816.57 880.98 810.09 874.53 Z" fill="url(#paint1_linear_1_462)" fill-opacity="0.8" fill-rule="evenodd" group-id="1" node-id="82" stroke="none" target-height="437.69403" target-width="949.28" target-x="103.84" target-y="695.5159"></path><path d="M 348.16 238.93 C 348.16 284.18 311.48 320.85 266.24 320.85 C 221.00 320.85 184.32 284.18 184.32 238.93 C 184.32 193.69 221.00 157.01 266.24 157.01 C 311.48 157.01 348.16 193.69 348.16 238.93 Z" fill="url(#paint2_linear_1_462)" fill-rule="nonzero" group-id="1" node-id="84" stroke="none" target-height="163.84" target-width="163.84" target-x="184.32" target-y="157.013"></path></g><path d="M 509.05 710.11 C 558.00 710.11 598.48 687.51 621.61 647.17 C 636.26 621.76 645.89 577.38 645.89 535.02 C 645.89 501.94 640.88 470.88 630.86 442.24 C 625.08 426.10 615.44 410.77 602.72 397.45 C 579.21 373.25 546.44 359.94 509.05 359.94 C 460.48 359.94 420.39 382.53 396.87 423.68 C 382.23 449.09 372.59 493.07 372.59 535.42 C 372.59 568.10 377.60 599.17 387.62 627.81 C 393.40 643.95 403.04 659.27 415.76 672.59 C 439.28 697.20 471.27 710.11 509.05 710.11 Z M 509.33 432.15 C 546.72 432.15 571.00 466.04 571.00 535.02 C 571.00 606.83 546.83 635.47 509.05 635.47 C 470.89 635.47 447.65 605.22 447.65 533.00 C 447.65 467.25 473.09 432.15 509.33 432.15 Z" fill="url(#paint3_linear_1_462)" fill-rule="nonzero" node-id="87" stroke="none" target-height="350.169" target-width="273.30603" target-x="372.589" target-y="359.937"></path><path d="M 71.91 633.46 C 77.03 633.46 231.12 633.46 231.12 633.46 C 231.12 656.56 231.23 699.21 231.12 703.65 L 304.36 703.65 C 304.36 699.21 304.36 656.81 304.36 633.86 C 320.84 633.86 353.70 633.86 353.70 633.86 L 353.70 566.09 C 337.25 566.09 320.81 566.09 304.36 566.09 L 304.36 368.00 L 228.42 368.00 L 71.91 562.86 L 71.91 633.46 Z M 231.50 566.89 L 153.63 566.89 C 180.89 532.38 208.60 498.20 233.81 462.00 C 231.79 496.99 231.50 531.86 231.50 566.89 Z" fill="url(#paint4_linear_1_462)" fill-rule="nonzero" node-id="89" stroke="none" target-height="335.64697" target-width="281.7867" target-x="71.9133" target-y="368.005"></path><path d="M 665.55 633.46 C 670.67 633.46 824.75 633.46 824.75 633.46 C 824.75 656.56 824.86 699.21 824.75 703.65 L 898.00 703.65 C 898.00 699.21 898.00 656.81 898.00 633.86 C 914.48 633.86 947.34 633.86 947.34 633.86 L 947.34 566.09 C 930.89 566.09 914.44 566.09 898.00 566.09 L 898.00 368.00 L 822.06 368.00 L 665.55 562.86 L 665.55 633.46 Z M 825.14 566.89 L 747.27 566.89 C 774.53 532.38 802.23 498.20 827.45 462.00 C 825.43 496.99 825.14 531.86 825.14 566.89 Z" fill="url(#paint5_linear_1_462)" fill-rule="nonzero" node-id="91" stroke="none" target-height="335.64697" target-width="281.787" target-x="665.551" target-y="368.005"></path><path d="M 832.85 211.63 C 844.16 211.63 853.33 220.80 853.33 232.11 C 853.33 243.42 844.16 252.59 832.85 252.59 L 669.01 252.59 C 657.70 252.59 648.53 243.42 648.53 232.11 C 648.53 220.80 657.70 211.63 669.01 211.63 L 730.45 211.63 C 741.76 211.63 750.93 202.46 750.93 191.15 C 750.93 179.84 741.76 170.67 730.45 170.67 L 723.63 170.67 C 712.32 170.67 703.15 161.50 703.15 150.19 C 703.15 138.88 712.32 129.71 723.63 129.71 L 860.16 129.71 C 871.47 129.71 880.64 138.88 880.64 150.19 C 880.64 161.50 871.47 170.67 860.16 170.67 L 832.86 170.67 C 821.54 170.67 812.38 179.84 812.38 191.15 C 812.38 202.46 821.54 211.63 832.86 211.63 L 832.85 211.63 Z" fill="#1671ee" fill-rule="nonzero" node-id="93" stroke="none" target-height="122.880005" target-width="232.107" target-x="648.533" target-y="129.707"></path></svg>