<?xml version="1.0" standalone="no"?><!DOCTYPE svg PUBLIC "-//W3C//DTD SVG 1.1//EN" "http://www.w3.org/Graphics/SVG/1.1/DTD/svg11.dtd"><svg height="1024" node-id="1" sillyvg="true" template-height="1024" template-width="1024" version="1.1" viewBox="0 0 1024 1024" width="1024" xmlns="http://www.w3.org/2000/svg" xmlns:xlink="http://www.w3.org/1999/xlink"><defs node-id="63"><linearGradient gradientUnits="objectBoundingBox" id="paint0_linear_1_388" node-id="20" spreadMethod="pad" x1="295.993" x2="331.157" y1="860.927" y2="883.389"><stop offset="0" stop-color="#d9dde0"></stop><stop offset="0.746351" stop-color="#e9ecee"></stop></linearGradient><linearGradient gradientUnits="objectBoundingBox" id="paint1_linear_1_388" node-id="23" spreadMethod="pad" x1="726.927" x2="691.756" y1="860.927" y2="883.394"><stop offset="0" stop-color="#1671ee"></stop><stop offset="0.746351" stop-color="#e9ecee"></stop></linearGradient><linearGradient gradientUnits="objectBoundingBox" id="paint2_linear_1_388" node-id="26" spreadMethod="pad" x1="508.587" x2="512.223" y1="750.933" y2="819.006"><stop offset="0" stop-color="#1671ee"></stop><stop offset="0.858072" stop-color="#edeef0"></stop></linearGradient><linearGradient gradientUnits="objectBoundingBox" id="paint3_linear_1_388" node-id="29" spreadMethod="pad" x1="505.042" x2="505.042" y1="733.417" y2="745.094"><stop offset="0" stop-color="#1671ee"></stop><stop offset="1" stop-color="#d2d5d9"></stop></linearGradient><linearGradient gradientUnits="objectBoundingBox" id="paint4_linear_1_388" node-id="32" spreadMethod="pad" x1="505.174" x2="505.174" y1="651.675" y2="733.417"><stop offset="0" stop-color="#1671ee"></stop><stop offset="1" stop-color="#eaebee"></stop></linearGradient><linearGradient gradientUnits="objectBoundingBox" id="paint5_linear_1_388" node-id="35" spreadMethod="pad" x1="434.281" x2="503.209" y1="273.067" y2="669.355"><stop offset="0" stop-color="#1671ee"></stop><stop offset="1" stop-color="#dbdde1"></stop></linearGradient><linearGradient gradientUnits="objectBoundingBox" id="paint6_linear_1_388" node-id="38" spreadMethod="pad" x1="488.739" x2="663.612" y1="332.78" y2="628.642"><stop offset="0" stop-color="#f1f3f5"></stop><stop offset="1" stop-color="#ffffff"></stop></linearGradient><linearGradient gradientUnits="objectBoundingBox" id="paint7_linear_1_388" node-id="41" spreadMethod="pad" x1="298.581" x2="298.581" y1="416.427" y2="521.625"><stop offset="0" stop-color="#1671ee"></stop><stop offset="1" stop-color="#e5e8eb"></stop></linearGradient><linearGradient gradientUnits="objectBoundingBox" id="paint8_linear_1_388" node-id="44" spreadMethod="pad" x1="603.124" x2="603.124" y1="416.427" y2="524.998"><stop offset="0" stop-color="#1671ee"></stop><stop offset="1" stop-color="#e5e8eb"></stop></linearGradient><linearGradient gradientUnits="objectBoundingBox" id="paint9_linear_1_388" node-id="47" spreadMethod="pad" x1="399.282" x2="399.282" y1="416.427" y2="520.781"><stop offset="0" stop-color="#1671ee"></stop><stop offset="1" stop-color="#e5e8eb"></stop></linearGradient><linearGradient gradientUnits="objectBoundingBox" id="paint10_linear_1_388" node-id="50" spreadMethod="pad" x1="500.794" x2="500.794" y1="416.427" y2="520.781"><stop offset="0" stop-color="#1671ee"></stop><stop offset="1" stop-color="#e5e8eb"></stop></linearGradient><linearGradient gradientUnits="objectBoundingBox" id="paint11_linear_1_388" node-id="53" spreadMethod="pad" x1="711.627" x2="711.627" y1="416.427" y2="520.781"><stop offset="0" stop-color="#1671ee"></stop><stop offset="1" stop-color="#e5e8eb"></stop></linearGradient><linearGradient gradientUnits="objectBoundingBox" id="paint12_linear_1_388" node-id="56" spreadMethod="pad" x1="747.52" x2="747.52" y1="738.017" y2="747.119"><stop offset="0" stop-color="#1671ee"></stop><stop offset="1" stop-color="#d2d5d9"></stop></linearGradient><linearGradient gradientUnits="objectBoundingBox" id="paint13_linear_1_388" node-id="59" spreadMethod="pad" x1="747.521" x2="747.521" y1="709.974" y2="738.015"><stop offset="0" stop-color="#1671ee"></stop><stop offset="1" stop-color="#e6e9ec"></stop></linearGradient></defs><path d="M 935.25 512.00 C 935.25 745.76 745.76 935.25 512.00 935.25 C 278.24 935.25 88.75 745.76 88.75 512.00 C 88.75 278.24 278.24 88.75 512.00 88.75 C 745.76 88.75 935.25 278.24 935.25 512.00 Z" fill="#f5f6f7" fill-rule="nonzero" node-id="150" stroke="none" target-height="846.5062" target-width="846.50635" target-x="88.7466" target-y="88.746704"></path><path d="M 379.20 802.82 L 327.20 892.88 C 314.26 886.59 301.69 879.66 289.52 872.13 L 341.96 781.31 L 379.20 802.82 Z" fill="url(#paint0_linear_1_388)" fill-rule="nonzero" node-id="152" stroke="none" target-height="111.573" target-width="89.68198" target-x="289.523" target-y="781.312"></path><path d="M 733.68 872.62 C 721.50 880.13 708.90 887.03 695.94 893.30 L 643.71 802.82 L 680.96 781.31 L 733.68 872.62 Z" fill="url(#paint1_linear_1_388)" fill-rule="nonzero" node-id="154" stroke="none" target-height="111.98596" target-width="89.97406" target-x="643.707" target-y="781.312"></path><path d="M 163.84 750.93 L 853.33 750.93 L 853.33 819.20 L 163.84 819.20 L 163.84 750.93 Z" fill="url(#paint2_linear_1_388)" fill-rule="nonzero" node-id="156" stroke="none" target-height="68.26709" target-width="689.49304" target-x="163.84" target-y="750.9329"></path><path d="M 416.43 733.42 L 593.66 733.42 L 593.66 750.93 L 416.43 750.93 Z" fill="url(#paint3_linear_1_388)" fill-rule="nonzero" node-id="158" stroke="none" target-height="17.516174" target-width="177.23102" target-x="416.427" target-y="733.417"></path><path d="M 458.37 651.67 L 446.10 733.42 L 564.25 733.42 L 551.98 651.67 L 458.37 651.67 Z" fill="url(#paint4_linear_1_388)" fill-rule="nonzero" node-id="160" stroke="none" target-height="81.742004" target-width="118.15399" target-x="446.097" target-y="651.675"></path><path d="M 456.00 667.00 L 554.30 667.00 L 554.89 671.00 L 455.50 671.00 L 456.00 667.00 Z" fill="#000000" fill-opacity="0.15" fill-rule="nonzero" node-id="162" stroke="none" target-height="4" target-width="99.387054" target-x="455.49997" target-y="667"></path><path d="M 197.97 283.07 C 197.97 277.54 202.45 273.07 207.97 273.07 L 802.37 273.07 C 807.90 273.07 812.37 277.54 812.37 283.07 L 812.37 659.01 C 812.37 664.54 807.90 669.01 802.37 669.01 L 207.97 669.01 C 202.45 669.01 197.97 664.54 197.97 659.01 L 197.97 283.07 Z" fill="url(#paint5_linear_1_388)" fill-rule="nonzero" node-id="164" stroke="none" target-height="395.946" target-width="614.3999" target-x="197.973" target-y="273.067"></path><path d="M 232.11 307.20 L 778.24 307.20 L 778.24 607.57 L 232.11 607.57 Z" fill="url(#paint6_linear_1_388)" fill-rule="nonzero" node-id="166" stroke="none" target-height="300.373" target-width="546.133" target-x="232.106" target-y="307.2"></path><path d="M 518.83 634.88 C 518.83 638.50 517.39 641.97 514.83 644.53 C 512.27 647.09 508.79 648.53 505.17 648.53 C 501.55 648.53 498.08 647.09 495.52 644.53 C 492.96 641.97 491.52 638.50 491.52 634.88 C 491.52 631.26 492.96 627.79 495.52 625.23 C 498.08 622.67 501.55 621.23 505.17 621.23 C 508.79 621.23 512.27 622.67 514.83 625.23 C 517.39 627.79 518.83 631.26 518.83 634.88 Z" fill="#f1f3f5" fill-rule="nonzero" node-id="168" stroke="none" target-height="27.30664" target-width="27.30658" target-x="491.5197" target-y="621.2267"></path><path d="M 337.75 499.63 L 285.15 499.63 L 285.15 478.65 L 330.88 478.65 L 330.88 457.28 L 285.15 457.28 L 285.15 438.92 L 336.25 438.92 L 336.25 416.43 L 259.41 416.43 L 259.41 521.62 L 337.75 521.62 L 337.75 499.63 Z" fill="url(#paint7_linear_1_388)" fill-rule="nonzero" node-id="170" stroke="none" target-height="105.198" target-width="78.336" target-x="259.413" target-y="416.427"></path><path d="M 603.19 416.43 C 572.45 416.43 552.71 437.54 552.71 470.53 C 552.71 503.63 572.45 525.00 603.06 525.00 C 633.42 525.00 653.54 503.13 653.54 470.15 C 653.54 437.42 633.92 416.43 603.19 416.43 Z M 603.06 501.01 C 587.82 501.01 578.57 490.76 578.57 470.40 C 578.57 450.29 587.82 439.67 603.06 439.67 C 618.18 439.67 627.55 450.16 627.55 470.40 C 627.55 490.89 618.18 501.01 603.06 501.01 Z" fill="url(#paint8_linear_1_388)" fill-rule="nonzero" node-id="172" stroke="none" target-height="108.570984" target-width="100.82501" target-x="552.712" target-y="416.427"></path><path d="M 445.45 520.75 C 442.32 514.13 440.82 511.00 439.45 507.51 C 433.83 494.01 432.08 489.76 430.20 485.77 C 426.21 476.90 423.33 474.02 416.96 472.02 C 430.05 466.12 433.95 460.03 433.95 446.60 C 433.95 433.17 420.57 416.43 404.22 416.80 C 387.20 416.80 353.12 416.43 353.12 416.43 L 353.12 520.75 L 378.98 520.75 L 378.98 481.39 L 391.72 481.39 C 395.72 481.39 398.85 482.39 401.47 484.77 C 404.59 487.52 408.50 495.76 410.52 501.26 C 412.55 506.76 418.33 520.78 418.33 520.78 L 445.45 520.75 Z M 378.98 460.03 L 378.98 437.79 L 398.60 437.79 C 406.34 437.79 410.34 441.41 410.34 448.41 C 410.34 455.53 405.84 460.03 398.47 460.03 L 378.98 460.03 Z" fill="url(#paint9_linear_1_388)" fill-rule="nonzero" node-id="174" stroke="none" target-height="104.354004" target-width="92.329956" target-x="353.11703" target-y="416.427"></path><path d="M 546.96 520.75 C 543.84 514.13 542.34 511.00 540.96 507.51 C 535.34 494.01 533.59 489.76 531.72 485.77 C 527.72 476.90 524.85 474.02 518.47 472.02 C 531.56 466.12 535.46 460.03 535.46 446.60 C 535.46 433.17 522.08 416.43 505.73 416.80 C 488.71 416.80 454.63 416.43 454.63 416.43 L 454.63 520.75 L 480.49 520.75 L 480.49 481.39 L 493.24 481.39 C 497.23 481.39 500.36 482.39 502.98 484.77 C 506.10 487.52 510.01 495.76 512.04 501.26 C 514.06 506.76 519.85 520.78 519.85 520.78 L 546.96 520.75 Z M 480.49 460.03 L 480.49 437.79 L 500.11 437.79 C 507.85 437.79 511.85 441.41 511.85 448.41 C 511.85 455.53 507.35 460.03 499.98 460.03 L 480.49 460.03 Z" fill="url(#paint10_linear_1_388)" fill-rule="nonzero" node-id="176" stroke="none" target-height="104.354004" target-width="92.32999" target-x="454.629" target-y="416.427"></path><path d="M 757.79 520.75 C 754.67 514.13 753.17 511.00 751.79 507.51 C 746.17 494.01 744.42 489.76 742.55 485.77 C 738.55 476.90 735.68 474.02 729.31 472.02 C 742.39 466.12 746.30 460.03 746.30 446.60 C 746.30 433.17 732.92 416.43 716.56 416.80 C 699.54 416.80 665.46 416.43 665.46 416.43 L 665.46 520.75 L 691.33 520.75 L 691.33 481.39 L 704.07 481.39 C 708.07 481.39 711.19 482.39 713.81 484.77 C 716.94 487.52 720.85 495.76 722.87 501.26 C 724.89 506.76 730.68 520.78 730.68 520.78 L 757.79 520.75 Z M 691.33 460.03 L 691.33 437.79 L 710.94 437.79 C 718.69 437.79 722.68 441.41 722.68 448.41 C 722.68 455.53 718.19 460.03 710.82 460.03 L 691.33 460.03 Z" fill="url(#paint11_linear_1_388)" fill-rule="nonzero" node-id="178" stroke="none" target-height="104.354004" target-width="92.33008" target-x="665.462" target-y="416.427"></path><path d="M 709.97 738.02 L 785.07 738.02 L 785.07 751.67 L 709.97 751.67 Z" fill="url(#paint12_linear_1_388)" fill-rule="nonzero" node-id="180" stroke="none" target-height="13.653259" target-width="75.09326" target-x="709.973" target-y="738.017"></path><path d="M 747.52 709.97 C 763.61 709.97 776.82 722.29 778.24 738.01 L 716.80 738.01 C 718.22 722.29 731.43 709.97 747.52 709.97 Z" fill="url(#paint13_linear_1_388)" fill-rule="nonzero" node-id="182" stroke="none" target-height="28.041016" target-width="61.434998" target-x="716.803" target-y="709.974"></path></svg>