<?xml version="1.0" standalone="no"?><!DOCTYPE svg PUBLIC "-//W3C//DTD SVG 1.1//EN" "http://www.w3.org/Graphics/SVG/1.1/DTD/svg11.dtd"><svg height="1024" node-id="1" sillyvg="true" template-height="1024" template-width="1024" version="1.1" viewBox="0 0 1024 1024" width="1024" xmlns="http://www.w3.org/2000/svg" xmlns:xlink="http://www.w3.org/1999/xlink"><defs node-id="28"><linearGradient gradientUnits="objectBoundingBox" id="paint0_linear_1_450" node-id="12" spreadMethod="pad" x1="385.129" x2="385.129" y1="287.875" y2="662.187"><stop offset="0" stop-color="#1671ee"></stop><stop offset="1" stop-color="#f5f6f7"></stop></linearGradient><linearGradient gradientUnits="objectBoundingBox" id="paint1_linear_1_450" node-id="15" spreadMethod="pad" x1="385.129" x2="385.129" y1="109.227" y2="287.875"><stop offset="0" stop-color="#1671ee"></stop><stop offset="1" stop-color="#eeeef1"></stop></linearGradient><linearGradient gradientUnits="objectBoundingBox" id="paint2_linear_1_450" node-id="18" spreadMethod="pad" x1="573.44" x2="573.44" y1="469.15" y2="894.294"><stop offset="0" stop-color="#1671ee"></stop><stop offset="1" stop-color="#e9ebee"></stop></linearGradient><linearGradient gradientUnits="objectBoundingBox" id="paint3_linear_1_450" node-id="21" spreadMethod="pad" x1="573.44" x2="573.44" y1="739.695" y2="826.656"><stop offset="0" stop-color="#0059fa"></stop><stop offset="1" stop-color="#d9dde0"></stop></linearGradient><linearGradient gradientUnits="objectBoundingBox" id="paint4_linear_1_450" node-id="24" spreadMethod="pad" x1="573.44" x2="573.44" y1="266.24" y2="469.15"><stop offset="0" stop-color="#1671ee"></stop><stop offset="1" stop-color="#d7dade"></stop></linearGradient><mask height="848" id="mask0_1_450" maskUnits="userSpaceOnUse" node-id="2" width="848" x="88" y="88"><path d="M 935.25 512.00 C 935.25 745.76 745.76 935.25 512.00 935.25 C 278.24 935.25 88.75 745.76 88.75 512.00 C 88.75 278.24 278.24 88.75 512.00 88.75 C 745.76 88.75 935.25 278.24 935.25 512.00 Z" fill="#f5f6f7" fill-rule="nonzero" node-id="61" stroke="none" target-height="846.5062" target-width="846.5062" target-x="88.746704" target-y="88.746704"></path></mask></defs><g node-id="80"><path d="M 935.25 512.00 C 935.25 745.76 745.76 935.25 512.00 935.25 C 278.24 935.25 88.75 745.76 88.75 512.00 C 88.75 278.24 278.24 88.75 512.00 88.75 C 745.76 88.75 935.25 278.24 935.25 512.00 Z" fill="#f5f6f7" fill-rule="nonzero" group-id="1" node-id="67" stroke="none" target-height="846.5062" target-width="846.5062" target-x="88.746704" target-y="88.746704"></path></g><path d="M 197.97 297.88 C 197.97 292.35 202.45 287.88 207.97 287.88 L 562.28 287.88 C 567.81 287.88 572.28 292.35 572.28 297.88 L 572.28 652.19 C 572.28 657.71 567.81 662.19 562.28 662.19 L 207.97 662.19 C 202.45 662.19 197.97 657.71 197.97 652.19 L 197.97 297.88 Z" fill="url(#paint0_linear_1_450)" fill-rule="nonzero" node-id="70" stroke="none" target-height="374.312" target-width="374.31195" target-x="197.973" target-y="287.875"></path><path d="M 495.72 287.88 L 495.72 220.88 C 495.72 159.22 446.21 109.23 385.13 109.23 C 324.05 109.23 274.54 159.22 274.54 220.88 L 274.54 287.88 L 310.27 287.88 L 310.27 220.88 C 310.27 183.88 342.59 145.38 385.13 145.38 C 427.67 145.38 459.99 183.88 459.99 220.88 L 459.99 287.88 L 495.72 287.88 Z" fill="url(#paint1_linear_1_450)" fill-rule="evenodd" node-id="72" stroke="none" target-height="178.64801" target-width="221.18402" target-x="274.537" target-y="109.227"></path><path d="M 361.81 479.15 C 361.81 473.63 366.29 469.15 371.81 469.15 L 775.07 469.15 C 780.59 469.15 785.07 473.63 785.07 479.15 L 785.07 884.29 C 785.07 889.82 780.59 894.29 775.07 894.29 L 371.81 894.29 C 366.29 894.29 361.81 889.82 361.81 884.29 L 361.81 479.15 Z" fill="url(#paint2_linear_1_450)" fill-rule="nonzero" node-id="74" stroke="none" target-height="425.144" target-width="423.2541" target-x="361.813" target-y="469.15"></path><path d="M 602.30 768.68 C 602.30 779.41 596.50 788.78 587.87 793.79 L 587.87 812.16 C 587.87 820.17 581.41 826.66 573.44 826.66 C 565.47 826.66 559.01 820.17 559.01 812.16 L 559.01 793.79 C 550.38 788.78 544.58 779.41 544.58 768.68 C 544.58 752.67 557.50 739.70 573.44 739.70 C 589.38 739.70 602.30 752.67 602.30 768.68 Z" fill="url(#paint3_linear_1_450)" fill-rule="evenodd" node-id="76" stroke="none" target-height="86.961" target-width="57.716003" target-x="544.582" target-y="739.695"></path><path d="M 698.49 469.15 L 698.49 393.06 C 698.49 323.02 642.50 266.24 573.44 266.24 C 504.38 266.24 448.39 323.02 448.39 393.06 L 448.39 469.15 L 488.79 469.15 L 488.79 393.06 C 488.79 351.04 525.34 307.31 573.44 307.31 C 621.54 307.31 658.09 351.04 658.09 393.06 L 658.09 469.15 L 698.49 469.15 Z" fill="url(#paint4_linear_1_450)" fill-rule="evenodd" node-id="78" stroke="none" target-height="202.91" target-width="250.104" target-x="448.388" target-y="266.24"></path></svg>