<?xml version="1.0" standalone="no"?><!DOCTYPE svg PUBLIC "-//W3C//DTD SVG 1.1//EN" "http://www.w3.org/Graphics/SVG/1.1/DTD/svg11.dtd"><svg height="1024" node-id="1" sillyvg="true" template-height="1024" template-width="1024" version="1.1" viewBox="0 0 1024 1024" width="1024" xmlns="http://www.w3.org/2000/svg" xmlns:xlink="http://www.w3.org/1999/xlink"><defs node-id="28"><linearGradient gradientUnits="objectBoundingBox" id="paint0_linear_1_151" node-id="14" spreadMethod="pad" x1="512" x2="512" y1="72.6427" y2="716.8"><stop offset="0" stop-color="#f5f6f7"></stop><stop offset="1" stop-color="#c4c7cf"></stop></linearGradient><linearGradient gradientUnits="objectBoundingBox" id="paint1_linear_1_151" node-id="17" spreadMethod="pad" x1="764.587" x2="447.147" y1="559.787" y2="873.813"><stop offset="0" stop-color="#1671ee"></stop><stop offset="0.337418" stop-color="#003dbb" stop-opacity="0.6784314"></stop><stop offset="0.895445" stop-color="#e9eaee" stop-opacity="0"></stop></linearGradient><linearGradient gradientUnits="objectBoundingBox" id="paint2_linear_1_151" node-id="21" spreadMethod="pad" x1="512.002" x2="512.002" y1="603.673" y2="914.773"><stop offset="0" stop-color="#1671ee"></stop><stop offset="0.903448" stop-color="#f5f6f7"></stop></linearGradient><linearGradient gradientUnits="objectBoundingBox" id="paint3_linear_1_151" node-id="24" spreadMethod="pad" x1="552.96" x2="860.16" y1="314.027" y2="314.027"><stop offset="0" stop-color="#1671ee"></stop><stop offset="1" stop-color="#e9ebee"></stop></linearGradient><mask height="848" id="mask0_1_151" maskUnits="userSpaceOnUse" node-id="2" width="848" x="88" y="88"><path d="M 935.25 512.00 C 935.25 745.76 745.76 935.25 512.00 935.25 C 278.24 935.25 88.75 745.76 88.75 512.00 C 88.75 278.24 278.24 88.75 512.00 88.75 C 745.76 88.75 935.25 278.24 935.25 512.00 Z" fill="#f5f6f7" fill-rule="nonzero" node-id="57" stroke="none" target-height="846.5062" target-width="846.5062" target-x="88.746704" target-y="88.746704"></path></mask></defs><g node-id="80"><path d="M 935.25 512.00 C 935.25 745.76 745.76 935.25 512.00 935.25 C 278.24 935.25 88.75 745.76 88.75 512.00 C 88.75 278.24 278.24 88.75 512.00 88.75 C 745.76 88.75 935.25 278.24 935.25 512.00 Z" fill="#f5f6f7" fill-rule="nonzero" group-id="1" node-id="63" stroke="none" target-height="846.5062" target-width="846.5062" target-x="88.746704" target-y="88.746704"></path></g><path d="M 204.80 190.67 C 204.80 179.62 213.75 170.67 224.80 170.67 L 799.20 170.67 C 810.25 170.67 819.20 179.62 819.20 190.67 L 819.20 696.80 C 819.20 707.85 810.25 716.80 799.20 716.80 L 224.80 716.80 C 213.75 716.80 204.80 707.85 204.80 696.80 L 204.80 190.67 Z" fill="url(#paint0_linear_1_151)" fill-rule="nonzero" node-id="66" stroke="none" target-height="546.133" target-width="614.4" target-x="204.8" target-y="170.667"></path><path d="M 901.12 678.79 C 853.27 790.29 758.90 877.09 642.43 914.77 L 381.57 914.77 C 268.21 878.09 175.78 794.88 126.81 687.66 L 901.12 518.83 L 901.12 678.79 Z" fill="url(#paint1_linear_1_151)" fill-rule="nonzero" node-id="68" stroke="none" target-height="395.94702" target-width="774.311" target-x="126.809" target-y="518.826"></path><path d="M 901.12 687.66 C 852.14 794.88 759.72 878.09 646.36 914.77 L 385.49 914.77 C 269.03 877.09 174.66 790.29 126.81 678.79 L 126.81 518.83 L 901.12 687.66 Z" fill="url(#paint2_linear_1_151)" fill-rule="nonzero" node-id="70" stroke="none" target-height="395.94702" target-width="774.30994" target-x="126.809" target-y="518.82654"></path><path d="M 850.16 225.28 C 855.68 225.28 860.16 229.76 860.16 235.28 L 860.16 433.73 C 860.16 439.26 855.68 443.73 850.16 443.73 L 615.76 443.73 C 612.74 443.73 609.88 445.10 607.99 447.44 L 570.73 493.46 C 564.80 500.78 552.96 496.59 552.96 487.17 L 552.96 443.73 L 552.96 235.28 C 552.96 229.76 557.44 225.28 562.96 225.28 L 850.16 225.28 Z" fill="url(#paint3_linear_1_151)" fill-rule="nonzero" node-id="72" stroke="none" target-height="275.504" target-width="307.19995" target-x="552.96" target-y="225.28"></path><path d="M 662.19 337.92 C 662.19 342.45 660.39 346.79 657.19 349.99 C 653.99 353.19 649.65 354.99 645.12 354.99 C 640.59 354.99 636.25 353.19 633.05 349.99 C 629.85 346.79 628.05 342.45 628.05 337.92 C 628.05 333.39 629.85 329.05 633.05 325.85 C 636.25 322.65 640.59 320.85 645.12 320.85 C 649.65 320.85 653.99 322.65 657.19 325.85 C 660.39 329.05 662.19 333.39 662.19 337.92 Z" fill="#f5f6f7" fill-rule="nonzero" node-id="74" stroke="none" target-height="34.133423" target-width="34.133423" target-x="628.0533" target-y="320.8533"></path><path d="M 730.45 337.92 C 730.45 342.45 728.66 346.79 725.46 349.99 C 722.25 353.19 717.91 354.99 713.39 354.99 C 708.86 354.99 704.52 353.19 701.32 349.99 C 698.12 346.79 696.32 342.45 696.32 337.92 C 696.32 333.39 698.12 329.05 701.32 325.85 C 704.52 322.65 708.86 320.85 713.39 320.85 C 717.91 320.85 722.25 322.65 725.46 325.85 C 728.66 329.05 730.45 333.39 730.45 337.92 Z" fill="#f5f6f7" fill-rule="nonzero" node-id="76" stroke="none" target-height="34.133423" target-width="34.133484" target-x="696.3203" target-y="320.8533"></path><path d="M 798.72 337.92 C 798.72 342.45 796.92 346.79 793.72 349.99 C 790.52 353.19 786.18 354.99 781.65 354.99 C 777.13 354.99 772.79 353.19 769.58 349.99 C 766.38 346.79 764.59 342.45 764.59 337.92 C 764.59 333.39 766.38 329.05 769.58 325.85 C 772.79 322.65 777.13 320.85 781.65 320.85 C 786.18 320.85 790.52 322.65 793.72 325.85 C 796.92 329.05 798.72 333.39 798.72 337.92 Z" fill="#f5f6f7" fill-rule="nonzero" node-id="78" stroke="none" target-height="34.133423" target-width="34.133423" target-x="764.5863" target-y="320.8533"></path></svg>